<?xml version="1.0" encoding="utf-8"?>
<!-- Generator: Adobe Illustrator 15.0.0, SVG Export Plug-In . SVG Version: 6.00 Build 0)  -->
<!DOCTYPE svg PUBLIC "-//W3C//DTD SVG 1.1//EN" "http://www.w3.org/Graphics/SVG/1.1/DTD/svg11.dtd">
<svg version="1.1" id="Layer_1" xmlns="http://www.w3.org/2000/svg" xmlns:xlink="http://www.w3.org/1999/xlink" x="0px" y="0px"
	 width="128px" height="128px" viewBox="242.15 332 128 128" enable-background="new 242.15 332 128 128" xml:space="preserve">
<g>
	<path fill="#252F3E" d="M284.332,387.791c0,1.235,0.133,2.236,0.366,2.97c0.266,0.734,0.599,1.535,1.064,2.403
		c0.166,0.267,0.233,0.534,0.233,0.768c0,0.333-0.2,0.667-0.632,1.001l-2.096,1.401c-0.299,0.201-0.599,0.3-0.865,0.3
		c-0.333,0-0.665-0.167-0.998-0.467c-0.466-0.5-0.865-1.034-1.197-1.568c-0.333-0.567-0.666-1.201-1.031-1.969
		c-2.594,3.07-5.854,4.605-9.778,4.605c-2.794,0-5.022-0.801-6.652-2.402c-1.63-1.602-2.461-3.738-2.461-6.407
		c0-2.836,0.998-5.139,3.027-6.875s4.723-2.603,8.148-2.603c1.131,0,2.295,0.1,3.525,0.267s2.494,0.434,3.825,0.734v-2.437
		c0-2.536-0.532-4.304-1.563-5.339c-1.064-1.035-2.86-1.535-5.421-1.535c-1.164,0-2.361,0.133-3.592,0.434
		c-1.231,0.3-2.428,0.667-3.592,1.135c-0.532,0.234-0.931,0.367-1.164,0.434c-0.233,0.066-0.399,0.1-0.532,0.1
		c-0.465,0-0.698-0.334-0.698-1.035v-1.635c0-0.534,0.066-0.934,0.233-1.168c0.166-0.233,0.465-0.467,0.931-0.701
		c1.164-0.601,2.561-1.101,4.19-1.502c1.63-0.434,3.359-0.634,5.188-0.634c3.958,0,6.852,0.901,8.714,2.703
		c1.83,1.802,2.761,4.539,2.761,8.209v10.812H284.332z M270.829,392.863c1.097,0,2.228-0.201,3.425-0.601s2.262-1.134,3.16-2.136
		c0.532-0.634,0.931-1.334,1.131-2.136c0.2-0.801,0.333-1.769,0.333-2.903v-1.401c-0.964-0.233-1.996-0.434-3.06-0.567
		c-1.064-0.133-2.095-0.2-3.126-0.2c-2.229,0-3.858,0.434-4.956,1.335c-1.098,0.901-1.63,2.169-1.63,3.837
		c0,1.569,0.399,2.737,1.23,3.538C268.134,392.463,269.298,392.863,270.829,392.863z M297.535,396.467
		c-0.599,0-0.998-0.1-1.264-0.333c-0.266-0.2-0.499-0.667-0.698-1.301l-7.816-25.796c-0.2-0.667-0.299-1.101-0.299-1.334
		c0-0.534,0.266-0.834,0.798-0.834h3.26c0.632,0,1.064,0.1,1.297,0.334c0.266,0.2,0.466,0.667,0.665,1.301l5.588,22.091
		l5.188-22.091c0.167-0.667,0.366-1.101,0.632-1.301c0.266-0.201,0.731-0.334,1.33-0.334h2.661c0.632,0,1.064,0.1,1.33,0.334
		c0.266,0.2,0.499,0.667,0.632,1.301l5.255,22.358l5.754-22.358c0.199-0.667,0.433-1.101,0.665-1.301
		c0.267-0.201,0.698-0.334,1.297-0.334h3.094c0.532,0,0.831,0.267,0.831,0.834c0,0.167-0.033,0.333-0.066,0.534
		s-0.1,0.467-0.232,0.834l-8.016,25.795c-0.2,0.667-0.433,1.102-0.698,1.301c-0.267,0.201-0.699,0.333-1.265,0.333h-2.86
		c-0.632,0-1.063-0.1-1.33-0.333c-0.266-0.233-0.499-0.667-0.632-1.334l-5.155-21.524l-5.122,21.49
		c-0.167,0.667-0.366,1.101-0.632,1.335s-0.732,0.333-1.331,0.333H297.535z M340.273,397.368c-1.729,0-3.459-0.2-5.122-0.601
		s-2.96-0.834-3.825-1.335c-0.532-0.3-0.897-0.634-1.031-0.935c-0.133-0.3-0.199-0.634-0.199-0.935v-1.702
		c0-0.701,0.267-1.034,0.766-1.034c0.199,0,0.398,0.033,0.598,0.1c0.2,0.067,0.499,0.201,0.832,0.334
		c1.131,0.5,2.361,0.901,3.658,1.168c1.331,0.267,2.628,0.4,3.958,0.4c2.096,0,3.725-0.367,4.855-1.101s1.729-1.802,1.729-3.17
		c0-0.934-0.299-1.702-0.897-2.336s-1.729-1.201-3.359-1.735l-4.822-1.501c-2.428-0.768-4.225-1.902-5.321-3.404
		c-1.098-1.469-1.663-3.104-1.663-4.839c0-1.401,0.299-2.636,0.897-3.704s1.397-2.002,2.395-2.736
		c0.998-0.768,2.129-1.335,3.459-1.735c1.331-0.4,2.728-0.567,4.191-0.567c0.731,0,1.496,0.033,2.228,0.133
		c0.766,0.101,1.464,0.234,2.162,0.367c0.665,0.167,1.297,0.334,1.896,0.534s1.064,0.4,1.397,0.601
		c0.465,0.267,0.798,0.534,0.998,0.834c0.199,0.267,0.299,0.634,0.299,1.102v1.568c0,0.701-0.266,1.068-0.765,1.068
		c-0.267,0-0.699-0.133-1.265-0.4c-1.896-0.868-4.023-1.302-6.385-1.302c-1.896,0-3.393,0.3-4.424,0.935s-1.563,1.602-1.563,2.97
		c0,0.935,0.333,1.735,0.998,2.369c0.665,0.634,1.896,1.268,3.658,1.835l4.723,1.501c2.395,0.768,4.124,1.835,5.155,3.204
		c1.031,1.369,1.53,2.937,1.53,4.672c0,1.435-0.3,2.736-0.865,3.871c-0.599,1.134-1.396,2.136-2.428,2.937
		c-1.031,0.834-2.262,1.435-3.691,1.869C343.532,397.135,341.97,397.368,340.273,397.368z"/>
	<g>
		<path fill="#FF9900" d="M346.559,413.586C335.617,421.695,319.719,426,306.05,426c-19.157,0-36.419-7.108-49.456-18.921
			c-1.031-0.935-0.1-2.203,1.13-1.469c14.102,8.209,31.497,13.182,49.49,13.182c12.14,0,25.477-2.537,37.749-7.741
			C346.792,410.216,348.355,412.252,346.559,413.586z"/>
		<path fill="#FF9900" d="M351.115,408.38c-1.396-1.802-9.246-0.867-12.805-0.434c-1.064,0.133-1.23-0.801-0.266-1.501
			c6.253-4.405,16.529-3.138,17.727-1.669c1.197,1.501-0.332,11.813-6.186,16.752c-0.898,0.768-1.763,0.367-1.364-0.635
			C349.553,417.591,352.513,410.148,351.115,408.38z"/>
	</g>
</g>
</svg>
