<?xml version="1.0" encoding="utf-8"?>
<!-- Generator: Adobe Illustrator 15.0.0, SVG Export Plug-In . SVG Version: 6.00 Build 0)  -->
<!DOCTYPE svg PUBLIC "-//W3C//DTD SVG 1.1//EN" "http://www.w3.org/Graphics/SVG/1.1/DTD/svg11.dtd">
<svg version="1.1" id="Layer_1" xmlns="http://www.w3.org/2000/svg" xmlns:xlink="http://www.w3.org/1999/xlink" x="0px" y="0px"
	 width="128px" height="128px" viewBox="0 0 128 128" enable-background="new 0 0 128 128" xml:space="preserve">
<g>
	<g>
		<path fill="#00878F" d="M114,64c0-13.098-11.052-23.756-24.636-23.756c-1.252,0-2.524,0.085-3.789,0.268
			c-10.553,1.505-17.616,9.099-21.572,14.921c-3.964-5.822-11.026-13.416-21.58-14.921c-1.261-0.183-2.535-0.268-3.787-0.268
			C25.048,40.244,14,50.902,14,64c0,13.104,11.048,23.756,24.625,23.756c1.261,0,2.537-0.084,3.798-0.26
			c10.554-1.516,17.616-9.111,21.58-14.939c3.956,5.828,11.02,13.424,21.572,14.939c1.265,0.176,2.537,0.26,3.8,0.26
			C102.952,87.756,114,77.104,114,64 M41.23,79.152c-0.865,0.123-1.742,0.188-2.605,0.188c-8.934,0-16.202-6.885-16.202-15.34
			c0-8.454,7.269-15.345,16.213-15.345c0.854,0,1.729,0.071,2.598,0.189c9.941,1.419,16.029,11.227,18.093,15.152
			C57.262,67.93,51.175,77.734,41.23,79.152 M68.678,64c2.064-3.929,8.146-13.736,18.09-15.155c0.862-0.118,1.743-0.189,2.597-0.189
			c8.938,0,16.211,6.891,16.211,15.345c0,8.456-7.269,15.34-16.2,15.34c-0.857,0-1.736-0.064-2.607-0.188
			C76.823,77.734,70.736,67.924,68.678,64"/>
		<rect x="31.847" y="61.679" fill="#00878F" width="14.791" height="4.768"/>
		<polygon fill="#00878F" points="91.007,66.447 96.008,66.447 96.008,61.679 91.007,61.679 91.007,56.663 86.228,56.663 
			86.228,61.679 81.218,61.679 81.218,66.447 86.228,66.447 86.228,71.463 91.007,71.463 		"/>
	</g>
	<g>
		<path fill="#00878F" d="M109.303,44.304c0-1.226,0.973-2.218,2.154-2.218c1.208,0,2.182,0.992,2.182,2.218
			c0,1.271-0.974,2.209-2.182,2.209C110.275,46.513,109.303,45.522,109.303,44.304z M113.261,44.304
			c0-0.991-0.749-1.875-1.804-1.875c-1.027,0-1.776,0.767-1.776,1.875c0,1.146,0.838,1.876,1.776,1.876
			C112.512,46.18,113.261,45.431,113.261,44.304z M110.43,42.898h1.072c0.839,0,1.136,0.36,1.136,0.92
			c0,0.379-0.18,0.667-0.522,0.812l0.522,1.056h-0.748l-0.388-0.93h-0.396v0.93h-0.676V42.898L110.43,42.898z M111.447,44.278
			c0.299,0,0.487-0.108,0.487-0.46c0-0.307-0.117-0.433-0.496-0.433h-0.333v0.893H111.447z"/>
	</g>
</g>
</svg>
