<?xml version="1.0" encoding="utf-8"?>
<!-- Generator: Adobe Illustrator 15.0.0, SVG Export Plug-In . SVG Version: 6.00 Build 0)  -->
<!DOCTYPE svg PUBLIC "-//W3C//DTD SVG 1.1//EN" "http://www.w3.org/Graphics/SVG/1.1/DTD/svg11.dtd">
<svg version="1.1"
	 id="svg10" xmlns:svg="http://www.w3.org/2000/svg" xmlns:sodipodi="http://sodipodi.sourceforge.net/DTD/sodipodi-0.dtd" xmlns:inkscape="http://www.inkscape.org/namespaces/inkscape" xmlns:dc="http://purl.org/dc/elements/1.1/" xmlns:cc="http://creativecommons.org/ns#" xmlns:rdf="http://www.w3.org/1999/02/22-rdf-syntax-ns#" inkscape:version="1.0.1 (3bc2e813f5, 2020-09-07)" sodipodi:docname="icons8-c-programming.svg"
	 xmlns="http://www.w3.org/2000/svg" xmlns:xlink="http://www.w3.org/1999/xlink" x="0px" y="0px" width="128px" height="128px"
	 viewBox="126 146 128 128" enable-background="new 126 146 128 128" xml:space="preserve">
<g>
	<path id="path2" fill="#004482" d="M187.389,160.682c1.617-0.907,3.607-0.907,5.221,0c7.988,4.483,32.026,17.979,40.018,22.462
		c1.616,0.905,2.611,2.581,2.611,4.396c0,8.966,0,35.955,0,44.921c0,1.815-0.995,3.491-2.611,4.397
		c-7.988,4.484-32.027,17.979-40.018,22.462c-1.616,0.907-3.607,0.907-5.221,0c-7.988-4.483-32.026-17.978-40.017-22.462
		c-1.614-0.906-2.609-2.581-2.609-4.395c0-8.967,0-35.955,0-44.922c0-1.814,0.995-3.49,2.612-4.397
		C155.36,178.661,179.403,165.165,187.389,160.682L187.389,160.682z"/>
	<path id="path4" fill="#659AD2" d="M145.486,234.772c-0.634-0.849-0.724-1.652-0.724-2.735c0-8.914,0-35.748,0-44.665
		c0-1.805,0.993-3.471,2.604-4.371c7.96-4.458,31.917-17.874,39.876-22.334c1.612-0.902,3.795-0.883,5.407,0.019
		c7.96,4.458,31.837,17.76,39.796,22.217c0.643,0.362,1.134,0.798,1.571,1.372L145.486,234.772z"/>
	<path fill="#FFFFFF" d="M190,176.667c-18.397,0-33.333,14.936-33.333,33.333s14.936,33.333,33.333,33.333
		s33.333-14.936,33.333-33.333S208.398,176.667,190,176.667z M190,226.667c-9.197,0-16.667-7.469-16.667-16.667
		c0-9.2,7.466-16.667,16.667-16.667c9.198,0,16.667,7.466,16.667,16.667C206.667,219.198,199.199,226.667,190,226.667z"/>
	<path id="path8" fill="#00599C" d="M234.012,184.298c1.229,1.15,1.205,2.883,1.205,4.248c0,9.036-0.076,34.735,0.021,43.771
		c0.009,0.943-0.302,1.937-0.77,2.684l-45.438-25L234.012,184.298z"/>
</g>
</svg>
