<?xml version="1.0" encoding="utf-8"?>
<!-- Generator: Adobe Illustrator 15.0.0, SVG Export Plug-In . SVG Version: 6.00 Build 0)  -->
<!DOCTYPE svg PUBLIC "-//W3C//DTD SVG 1.1//EN" "http://www.w3.org/Graphics/SVG/1.1/DTD/svg11.dtd">
<svg version="1.1" id="Layer_1" xmlns="http://www.w3.org/2000/svg" xmlns:xlink="http://www.w3.org/1999/xlink" x="0px" y="0px"
	 width="128px" height="128px" viewBox="0 0 128 128" enable-background="new 0 0 128 128" xml:space="preserve">
<g>
	<path id="path2" fill="#2B006D" d="M60.888,14.007c1.617-0.907,3.607-0.907,5.221,0c7.988,4.483,32.026,17.979,40.018,22.462
		c1.616,0.905,2.611,2.581,2.611,4.396c0,8.966,0,35.955,0,44.921c0,1.815-0.995,3.491-2.611,4.397
		c-7.988,4.484-32.027,17.979-40.018,22.462c-1.616,0.907-3.607,0.907-5.221,0c-7.988-4.483-32.026-17.978-40.017-22.462
		c-1.614-0.906-2.609-2.581-2.609-4.395c0-8.967,0-35.955,0-44.922c0-1.814,0.995-3.49,2.612-4.397
		C28.859,31.986,52.902,18.49,60.888,14.007L60.888,14.007z"/>
	<path id="path4" fill="#9E72DA" d="M18.986,88.098c-0.634-0.849-0.724-1.652-0.724-2.735c0-8.914,0-35.748,0-44.665
		c0-1.805,0.993-3.471,2.604-4.371c7.96-4.458,31.917-17.874,39.876-22.334c1.612-0.902,3.795-0.883,5.407,0.019
		c7.96,4.458,31.837,17.76,39.796,22.217c0.643,0.362,1.134,0.798,1.571,1.372L18.986,88.098z"/>
	<path fill="#FFFFFF" d="M63.5,29.992c-18.397,0-33.333,14.936-33.333,33.333S45.103,96.658,63.5,96.658
		s33.333-14.936,33.333-33.333S81.897,29.992,63.5,29.992z M63.5,79.992c-9.197,0-16.667-7.469-16.667-16.667
		c0-9.2,7.466-16.667,16.667-16.667c9.198,0,16.667,7.466,16.667,16.667C80.167,72.523,72.698,79.992,63.5,79.992z"/>
	<path id="path8" fill="#380190" d="M107.512,37.624c1.229,1.15,1.205,2.883,1.205,4.248c0,9.036-0.076,34.735,0.021,43.771
		c0.009,0.943-0.302,1.937-0.77,2.684l-45.438-25L107.512,37.624z"/>
	<path fill-rule="evenodd" clip-rule="evenodd" fill="#FFFFFF" d="M100.784,68.611c-0.821,0-1.644,0-2.464,0
		c-0.322,1.426-0.377,3.123-0.536,4.713c-0.929,0-1.857,0-2.785,0c0.095-1.582,0.315-3.039,0.429-4.607
		c-0.787-0.248-2.035-0.035-3.002-0.105c-0.312,1.437-0.327,3.169-0.534,4.713c-0.929,0-1.858,0-2.785,0
		c0.129-1.549,0.347-3.008,0.428-4.607c-0.573-0.248-1.605-0.035-2.358-0.105c0-0.857,0-1.717,0-2.572c0.858,0,1.715,0,2.573,0
		c0.279-1.115,0.327-2.459,0.427-3.75c-0.536-0.249-1.534-0.038-2.248-0.108c0-0.857,0-1.714,0-2.571c0.82,0,1.642,0,2.463,0
		c0.323-1.285,0.323-2.891,0.537-4.285c0.927,0,1.856,0,2.784,0c-0.15,1.385-0.3,2.77-0.428,4.178c0.787,0.25,2.033,0.037,3,0.107
		c0.295-1.312,0.284-2.931,0.536-4.285c0.928,0,1.857,0,2.784,0c-0.195,1.339-0.314,2.755-0.427,4.178
		c0.572,0.249,1.606,0.037,2.356,0.107c0,0.857,0,1.714,0,2.571c-0.857,0-1.715,0-2.571,0c-0.25,1.143-0.332,2.453-0.429,3.75
		c0.538,0.249,1.534,0.037,2.25,0.108C100.784,66.895,100.784,67.754,100.784,68.611z M93.07,62.181
		c-0.223,1.208-0.328,2.532-0.43,3.858c1.036,0,2.072,0,3.107,0c0.002-1.393,0.297-2.489,0.322-3.858
		C95.069,62.181,94.069,62.181,93.07,62.181z"/>
</g>
</svg>
