<?xml version="1.0" encoding="utf-8"?>
<!-- Generator: Adobe Illustrator 15.0.0, SVG Export Plug-In . SVG Version: 6.00 Build 0)  -->
<!DOCTYPE svg PUBLIC "-//W3C//DTD SVG 1.1//EN" "http://www.w3.org/Graphics/SVG/1.1/DTD/svg11.dtd">
<svg version="1.1" xmlns="http://www.w3.org/2000/svg" xmlns:xlink="http://www.w3.org/1999/xlink" x="0px" y="0px" width="128px"
	 height="128px" viewBox="292 366 128 128" enable-background="new 292 366 128 128" xml:space="preserve">
<g id="Layer_2">
</g>
<g id="Calque_1" inkscape:export-ydpi="90" inkscape:export-xdpi="90" sodipodi:docname="Tux Flat.svg" inkscape:version="0.91 r13725" xmlns:dc="http://purl.org/dc/elements/1.1/" xmlns:cc="http://creativecommons.org/ns#" xmlns:rdf="http://www.w3.org/1999/02/22-rdf-syntax-ns#" xmlns:svg="http://www.w3.org/2000/svg" xmlns:sodipodi="http://sodipodi.sourceforge.net/DTD/sodipodi-0.dtd" xmlns:inkscape="http://www.inkscape.org/namespaces/inkscape" inkscape:export-filename="./Tux Flat.png">
	<defs>
		
		<inkscape:path-effect  effect="spiro" id="path-effect29672-0" is_visible="true"></inkscape:path-effect>
		<inkscape:path-effect  effect="spiro" id="path-effect29678-1" is_visible="true"></inkscape:path-effect>
		<inkscape:path-effect  effect="spiro" id="path-effect29678-4-6" is_visible="true"></inkscape:path-effect>
		<inkscape:path-effect  effect="spiro" id="path-effect28714-5" is_visible="true"></inkscape:path-effect>
		<inkscape:path-effect  effect="spiro" id="path-effect29721-2" is_visible="true"></inkscape:path-effect>
		<inkscape:path-effect  effect="spiro" id="path-effect28463-8-0" is_visible="true"></inkscape:path-effect>
		<inkscape:path-effect  effect="spiro" id="path-effect28463-0-7" is_visible="true"></inkscape:path-effect>
		<inkscape:path-effect  effect="spiro" id="path-effect28797-8-1" is_visible="true"></inkscape:path-effect>
		<inkscape:path-effect  effect="spiro" id="path-effect28797-81" is_visible="true"></inkscape:path-effect>
		<inkscape:path-effect  effect="spiro" id="path-effect28273-4-2" is_visible="true"></inkscape:path-effect>
		<inkscape:path-effect  effect="spiro" id="path-effect28851-0" is_visible="true"></inkscape:path-effect>
		<inkscape:path-effect  effect="spiro" id="path-effect28881-6" is_visible="true"></inkscape:path-effect>
		<inkscape:path-effect  effect="spiro" id="path-effect28974-8" is_visible="true"></inkscape:path-effect>
		<inkscape:path-effect  effect="spiro" id="path-effect29455-3" is_visible="true"></inkscape:path-effect>
		<inkscape:path-effect  effect="spiro" id="path-effect28463-4" is_visible="true"></inkscape:path-effect>
		<inkscape:path-effect  effect="spiro" id="path-effect28489-4" is_visible="true"></inkscape:path-effect>
		<inkscape:path-effect  effect="spiro" id="path-effect28273-54-7" is_visible="true"></inkscape:path-effect>
		<inkscape:path-effect  effect="spiro" id="path-effect28273-44" is_visible="true"></inkscape:path-effect>
		<inkscape:path-effect  effect="spiro" id="path-effect28384-7" is_visible="true"></inkscape:path-effect>
		<inkscape:path-effect  effect="spiro" id="path-effect29553-7" is_visible="true"></inkscape:path-effect>
		<inkscape:path-effect  effect="spiro" id="path-effect29707-7-6" is_visible="true"></inkscape:path-effect>
		<inkscape:path-effect  effect="spiro" id="path-effect4500-7" is_visible="true"></inkscape:path-effect>
		<inkscape:path-effect  effect="spiro" id="path-effect4582-3" is_visible="true"></inkscape:path-effect>
		<inkscape:path-effect  effect="spiro" id="path-effect14300-7" is_visible="true"></inkscape:path-effect>
		<inkscape:path-effect  effect="spiro" id="path-effect14300-2-7" is_visible="true"></inkscape:path-effect>
		<inkscape:path-effect  effect="spiro" id="path-effect14300-2-2-0" is_visible="true"></inkscape:path-effect>
		<inkscape:path-effect  effect="spiro" id="path-effect29716-0-0" is_visible="true"></inkscape:path-effect>
		<inkscape:path-effect  effect="spiro" id="path-effect29716-0-8-3" is_visible="true"></inkscape:path-effect>
		<inkscape:path-effect  effect="spiro" id="path-effect29716-6-1" is_visible="true"></inkscape:path-effect>
		<inkscape:path-effect  effect="spiro" id="path-effect14972-2-2" is_visible="true"></inkscape:path-effect>
		<inkscape:path-effect  effect="spiro" id="path-effect15017-9" is_visible="true"></inkscape:path-effect>
		<inkscape:path-effect  effect="spiro" id="path-effect4669-1" is_visible="true"></inkscape:path-effect>
		<inkscape:path-effect  effect="spiro" id="path-effect4669-4-3" is_visible="true"></inkscape:path-effect>
	</defs>
	
		<sodipodi:namedview  id="namedview19" inkscape:pageshadow="2" inkscape:pageopacity="0" inkscape:cy="389.44084" inkscape:cx="-273.62273" inkscape:zoom="0.35355339" showgrid="false" guidetolerance="10" gridtolerance="10" objecttolerance="10" borderopacity="1" bordercolor="#666666" pagecolor="#ffffff" inkscape:window-maximized="0" inkscape:current-layer="Calque_1" inkscape:window-y="0" inkscape:window-x="0" inkscape:window-height="1061" inkscape:window-width="1595">
		</sodipodi:namedview>
	<path id="path3" fill="#202020" d="M394.745,458.796c-0.001-0.001-0.002-0.002-0.002-0.004c-0.728-0.798-1.075-2.278-1.448-3.855
		c-0.371-1.576-0.786-3.276-2.118-4.378c-0.003-0.002-0.007-0.005-0.009-0.007c-0.264-0.224-0.535-0.413-0.807-0.57
		c-0.274-0.157-0.551-0.285-0.828-0.387c1.85-5.335,1.125-10.647-0.744-15.446c-2.292-5.892-6.295-11.025-9.351-14.536
		c-3.423-4.195-6.77-8.178-6.703-14.06c0.102-8.978,1.017-25.626-15.239-25.648c-0.66-0.001-1.35,0.025-2.069,0.082
		c-18.164,1.421-13.346,20.073-13.616,26.318c-0.333,4.567-1.284,8.167-4.517,12.632c-3.796,4.388-9.143,11.491-11.675,18.885
		c-1.194,3.489-1.764,7.046-1.24,10.413c-0.164,0.143-0.319,0.294-0.469,0.447c-1.115,1.158-1.939,2.559-2.856,3.502
		c-0.857,0.833-2.079,1.148-3.421,1.616c-1.343,0.469-2.818,1.158-3.712,2.828c0,0,0,0.001-0.001,0.001
		c-0.001,0.002-0.002,0.006-0.005,0.008c-0.421,0.764-0.558,1.588-0.558,2.424c0,0.772,0.118,1.557,0.237,2.311
		c0.247,1.569,0.497,3.053,0.165,4.058c-1.063,2.825-1.2,4.777-0.452,6.195c0.751,1.42,2.292,2.046,4.035,2.4
		c3.486,0.706,8.206,0.531,11.925,2.448l0.32-0.587l-0.317,0.588c3.982,2.023,8.02,2.742,11.24,2.027
		c2.336-0.518,4.231-1.87,5.205-3.95c2.52-0.012,5.284-1.049,9.712-1.285c3.006-0.235,6.758,1.037,11.075,0.804
		c0.113,0.455,0.276,0.894,0.499,1.31c0.002,0.003,0.004,0.008,0.007,0.012c1.674,3.252,4.781,4.74,8.097,4.485
		c3.316-0.254,6.844-2.155,9.697-5.453l-0.524-0.427l0.528,0.422c2.718-3.203,7.229-4.531,10.221-6.284
		c1.495-0.877,2.708-1.975,2.804-3.569C397.923,462.971,396.96,461.185,394.745,458.796z"/>
	<path id="path5" fill="#F8BF11" d="M396.465,464.488c-0.059,0.983-0.79,1.715-2.146,2.508c-2.706,1.587-7.503,2.967-10.563,6.572
		c-2.66,3.076-5.905,4.766-8.76,4.984c-2.855,0.22-5.32-0.932-6.773-3.766l-0.003-0.006l-0.003-0.008
		c-0.901-1.667-0.526-4.296,0.232-7.07c0.759-2.772,1.85-5.622,1.997-7.937v-0.007c0.154-2.966,0.326-5.556,0.837-7.555
		c0.514-2,1.32-3.352,2.75-4.113c0.067-0.035,0.134-0.068,0.2-0.101c0.162,2.568,1.471,5.189,3.782,5.756
		c2.531,0.648,6.179-1.462,7.718-3.184c0.31-0.012,0.609-0.027,0.9-0.034c1.352-0.031,2.484,0.045,3.643,1.028l0.004,0.003
		l0.003,0.003c0.891,0.733,1.313,2.118,1.681,3.669c0.367,1.552,0.659,3.24,1.761,4.444l0.001,0.002l0.002,0.002
		C395.843,461.962,396.522,463.503,396.465,464.488z"/>
	<path id="path7" fill="#F8BF11" d="M345.039,471.761l-0.001,0.007v0.008c-0.245,3.117-2.053,4.814-4.831,5.432
		c-2.775,0.616-6.541,0.002-10.299-1.908c-0.001,0-0.002-0.002-0.003-0.002c-4.16-2.141-9.107-1.928-12.282-2.572
		c-1.587-0.322-2.623-0.807-3.098-1.707c-0.475-0.901-0.486-2.472,0.524-5.148l0.004-0.013l0.003-0.012
		c0.5-1.497,0.129-3.137-0.112-4.676c-0.242-1.537-0.361-2.938,0.179-3.912l0.005-0.009c0.692-1.297,1.708-1.761,2.967-2.199
		c1.26-0.439,2.753-0.784,3.932-1.934l0.007-0.006l0.006-0.006c1.09-1.118,1.909-2.521,2.868-3.515
		c0.808-0.84,1.618-1.396,2.838-1.403c0.014,0.001,0.027,0.001,0.042,0c0.213,0.001,0.44,0.019,0.68,0.055
		c1.619,0.237,3.03,1.338,4.392,3.131l3.926,6.956l0.001,0.004l0.002,0.002c1.045,2.12,3.252,4.453,5.122,6.833
		C343.781,467.544,345.228,469.933,345.039,471.761z"/>
	<path id="path9" fill="#F8BF11" d="M364.624,406.914c-0.315-0.6-0.959-1.171-2.057-1.608l-0.003-0.001l-0.003-0.001
		c-2.28-0.949-3.27-1.017-4.542-1.821c-2.072-1.294-3.783-1.748-5.205-1.742c-0.745,0.002-1.411,0.13-2.007,0.331
		c-1.733,0.579-2.884,1.788-3.605,2.452l-0.001,0.001c0,0.001-0.001,0.001-0.001,0.002c-0.142,0.13-0.324,0.25-0.766,0.564
		c-0.444,0.316-1.111,0.792-2.071,1.491c-0.853,0.622-1.13,1.43-0.834,2.378c0.294,0.947,1.234,2.041,2.954,2.986l0.003,0.002
		l0.003,0.001c1.067,0.61,1.796,1.432,2.634,2.085c0.418,0.327,0.859,0.618,1.389,0.838c0.53,0.22,1.149,0.37,1.924,0.414
		c1.818,0.103,3.157-0.428,4.339-1.085c1.183-0.656,2.186-1.459,3.336-1.822l0.002-0.001l0.003-0.001
		c2.357-0.716,4.039-2.158,4.565-3.528C364.947,408.165,364.938,407.514,364.624,406.914z"/>
	<path id="path11" inkscape:connector-curvature="0" sodipodi:nodetypes="sscccccssszzs" fill="#202020" d="M358.641,410.297
		c-1.876,0.95-4.067,2.103-6.398,2.103c-2.331,0-4.171-1.047-5.496-2.067c-0.663-0.509-1.2-1.017-1.605-1.385
		c-0.703-0.54-0.619-1.297-0.33-1.274c0.484,0.059,0.558,0.679,0.863,0.956c0.413,0.375,0.93,0.861,1.555,1.344
		c1.253,0.964,2.922,1.903,5.013,1.903c2.087,0,4.522-1.191,6.01-2.001c0.844-0.459,1.914-1.283,2.789-1.907
		c0.67-0.478,0.646-1.052,1.199-0.99c0.553,0.063,0.143,0.636-0.632,1.293S359.624,409.799,358.641,410.297z"/>
	<path id="path13" fill="#FFFFFF" d="M387.367,449.205c-0.262-0.009-0.517-0.008-0.768-0.002c-0.021,0.001-0.045,0.001-0.068,0.001
		c0.644-1.978-0.781-3.436-4.579-5.104c-3.938-1.684-7.074-1.517-7.605,1.898c-0.033,0.179-0.061,0.361-0.081,0.546
		c-0.296,0.101-0.59,0.226-0.887,0.384c-1.85,0.983-2.859,2.768-3.421,4.957c-0.559,2.187-0.721,4.829-0.875,7.801
		c0,0.001,0,0.001,0,0.002c-0.095,1.494-0.729,3.516-1.369,5.655c-6.449,4.474-15.402,6.411-23.004,1.367
		c-0.514-0.791-1.105-1.575-1.714-2.35c-0.388-0.494-0.788-0.985-1.184-1.47c0.78,0.001,1.443-0.124,1.979-0.359
		c0.667-0.295,1.135-0.766,1.368-1.372c0.462-1.211-0.003-2.92-1.486-4.873c-1.484-1.951-3.997-4.153-7.688-6.354c0,0,0,0,0-0.001
		c-2.713-1.641-4.229-3.65-4.939-5.832c-0.711-2.184-0.612-4.545-0.063-6.875c1.05-4.473,3.749-8.824,5.471-11.554
		c0.463-0.331,0.166,0.615-1.744,4.062c-1.711,3.149-4.909,10.419-0.53,16.095c0.118-4.039,1.109-8.157,2.775-12.01
		c2.427-5.345,7.502-14.617,7.905-22.005c0.208,0.147,0.922,0.616,1.24,0.792c0.001,0.001,0.001,0.001,0.002,0.001
		c0.931,0.533,1.63,1.312,2.535,2.019c0.909,0.709,2.042,1.321,3.755,1.417c0.165,0.009,0.325,0.014,0.482,0.014
		c1.766,0,3.143-0.56,4.289-1.197c1.247-0.692,2.241-1.459,3.187-1.758c0.001-0.001,0.002-0.001,0.004-0.001
		c1.994-0.606,3.579-1.679,4.48-2.928c1.55,5.936,5.153,14.51,7.47,18.694c1.23,2.22,3.68,6.936,4.738,12.62
		c0.671-0.021,1.409,0.074,2.2,0.271c2.767-6.973-2.347-14.481-4.685-16.572c-0.945-0.891-0.99-1.29-0.521-1.271
		c2.536,2.181,5.866,6.566,7.078,11.515c0.552,2.257,0.67,4.631,0.077,6.973c0.289,0.116,0.585,0.244,0.883,0.382
		C386.515,444.883,388.156,446.711,387.367,449.205z"/>
	<path id="path4166" fill="#E6E6E6" d="M355.715,430.358c-8.388,0.029-15.913,7.423-18.982,18.653l0.45,0.272v0.024
		c3.463,2.137,5.93,4.281,7.453,6.286l0,0l0,0c1.612,2.12,2.329,4.186,1.646,5.972h0v0.001c-0.346,0.9-1.082,1.622-1.995,2.025
		l-0.001,0.001l-0.001,0.001c-0.096,0.042-0.198,0.073-0.298,0.109c0.546,0.695,1.081,1.412,1.573,2.148
		c6.955,4.499,15.047,2.835,21.117-1.235c0.595-1.986,1.135-3.838,1.209-4.996c0.153-2.976,0.308-5.67,0.909-8.018l0,0
		c0.606-2.363,1.784-4.515,4.007-5.698h0.001l0.002-0.001c0.125-0.066,0.251-0.104,0.375-0.162c0.041-0.233,0.096-0.459,0.163-0.676
		C369.704,436.001,362.991,430.399,355.715,430.358z M373.168,445.788l-0.007,0.036c0-0.004,0.002-0.008,0.004-0.012
		C373.166,445.805,373.167,445.796,373.168,445.788z"/>
	<path id="path15" inkscape:connector-curvature="0" sodipodi:nodetypes="ccccccccccccccccccccccccscccc" fill="#FFFFFF" d="
		M364.832,400.075c0.01,1.176-0.199,2.178-0.658,3.2c-0.261,0.583-0.563,1.073-0.923,1.497c-0.123-0.057-0.25-0.112-0.383-0.165
		c-0.457-0.19-0.86-0.346-1.223-0.479s-0.646-0.224-0.938-0.322c0.213-0.249,0.629-0.541,0.783-0.908
		c0.234-0.554,0.35-1.095,0.371-1.739c0-0.026,0.008-0.048,0.008-0.078c0.015-0.618-0.069-1.146-0.256-1.687
		c-0.192-0.567-0.441-0.976-0.799-1.315c-0.358-0.339-0.716-0.493-1.146-0.507c-0.021-0.001-0.04-0.001-0.06-0.001
		c-0.403,0.001-0.754,0.137-1.115,0.43c-0.381,0.309-0.662,0.705-0.897,1.254c-0.234,0.55-0.349,1.096-0.372,1.744
		c-0.005,0.026-0.005,0.048-0.005,0.073c-0.008,0.357,0.017,0.684,0.073,1c-0.825-0.4-1.88-0.691-2.61-0.86
		c-0.042-0.307-0.066-0.623-0.073-0.954v-0.09c-0.014-1.173,0.184-2.179,0.648-3.2c0.465-1.022,1.039-1.757,1.848-2.354
		c0.809-0.597,1.604-0.871,2.546-0.88h0.044c0.922,0,1.71,0.263,2.52,0.833c0.82,0.581,1.414,1.306,1.891,2.32
		c0.469,0.989,0.693,1.955,0.717,3.101C364.824,400.02,364.824,400.045,364.832,400.075L364.832,400.075z"/>
	<path id="path17" inkscape:connector-curvature="0" sodipodi:nodetypes="cccccccccccccccccccccccccccccc" fill="#FFFFFF" d="
		M350.91,401.247c-0.122,0.034-0.239,0.07-0.355,0.108c-0.659,0.222-1.184,0.466-1.689,0.791c0.05-0.34,0.057-0.686,0.018-1.071
		c-0.004-0.021-0.004-0.039-0.004-0.06c-0.053-0.512-0.165-0.94-0.35-1.374c-0.198-0.451-0.419-0.77-0.71-1.015
		c-0.265-0.221-0.514-0.324-0.79-0.321c-0.028,0-0.057,0.001-0.085,0.003c-0.31,0.025-0.566,0.172-0.81,0.46
		c-0.243,0.287-0.402,0.644-0.517,1.117c-0.116,0.472-0.146,0.936-0.098,1.469c0,0.021,0.005,0.039,0.005,0.06
		c0.053,0.517,0.16,0.945,0.349,1.379c0.194,0.447,0.42,0.765,0.711,1.01c0.049,0.041,0.098,0.078,0.145,0.111
		c-0.302,0.227-0.505,0.389-0.754,0.565c-0.16,0.113-0.349,0.249-0.57,0.407c-0.481-0.438-0.856-0.989-1.185-1.715
		c-0.388-0.858-0.596-1.717-0.659-2.731v-0.008c-0.058-1.014,0.044-1.886,0.331-2.789c0.289-0.902,0.672-1.555,1.229-2.091
		c0.557-0.538,1.118-0.808,1.794-0.842c0.053-0.002,0.104-0.003,0.156-0.003c0.612,0.001,1.16,0.199,1.726,0.639
		c0.614,0.477,1.078,1.087,1.467,1.946c0.39,0.859,0.597,1.718,0.655,2.732v0.008C350.948,400.458,350.944,400.859,350.91,401.247
		L350.91,401.247z"/>
	<path id="path28396-7" inkscape:connector-curvature="0" sodipodi:nodetypes="aaaaaaa" fill="#202020" d="M353.987,403.673
		c0.078,0.242,0.479,0.202,0.71,0.318c0.204,0.102,0.368,0.325,0.596,0.332c0.219,0.006,0.559-0.073,0.587-0.284
		c0.037-0.278-0.38-0.455-0.649-0.557c-0.346-0.131-0.79-0.198-1.114-0.022C354.042,403.5,353.961,403.594,353.987,403.673
		L353.987,403.673z"/>
	<path id="path5461" inkscape:connector-curvature="0" sodipodi:nodetypes="aaaaaaa" fill="#202020" d="M351.616,403.673
		c-0.078,0.242-0.479,0.202-0.711,0.318c-0.203,0.102-0.367,0.325-0.596,0.332c-0.219,0.006-0.559-0.073-0.587-0.284
		c-0.037-0.278,0.38-0.455,0.649-0.557c0.346-0.131,0.789-0.198,1.114-0.022C351.56,403.5,351.642,403.594,351.616,403.673
		L351.616,403.673z"/>
</g>
</svg>
