<?xml version="1.0" encoding="utf-8"?>
<!-- Generator: Adobe Illustrator 15.0.0, SVG Export Plug-In . SVG Version: 6.00 Build 0)  -->
<!DOCTYPE svg PUBLIC "-//W3C//DTD SVG 1.1//EN" "http://www.w3.org/Graphics/SVG/1.1/DTD/svg11.dtd">
<svg version="1.1"
	 id="Horizontal" xmlns:svg="http://www.w3.org/2000/svg" xmlns:sodipodi="http://sodipodi.sourceforge.net/DTD/sodipodi-0.dtd" xmlns:inkscape="http://www.inkscape.org/namespaces/inkscape" xmlns:dc="http://purl.org/dc/elements/1.1/" xmlns:cc="http://creativecommons.org/ns#" xmlns:rdf="http://www.w3.org/1999/02/22-rdf-syntax-ns#"
	 xmlns="http://www.w3.org/2000/svg" xmlns:xlink="http://www.w3.org/1999/xlink" x="0px" y="0px" width="128px" height="128px"
	 viewBox="0 0 128 128" enable-background="new 0 0 128 128" xml:space="preserve">
<path id="path43" fill="#1C1E20" d="M102.809,40.65c-3.502-2.818-7.568-4.791-11.957-5.837c-2.496-0.604-5.032-0.885-7.609-0.966
	c-1.892-0.081-3.825-0.041-5.716-0.041H50.433c-1.892,0-3.824,0-5.717,0.041c-2.576,0.081-5.072,0.362-7.608,0.966
	c-4.388,1.047-8.414,3.02-11.917,5.837C18.106,46.327,14,54.902,14,64c0,9.099,4.106,17.674,11.191,23.35
	c3.502,2.818,7.569,4.791,11.957,5.838c2.496,0.604,5.032,0.885,7.609,0.966c1.892,0.08,3.825,0.04,5.717,0.04h27.093
	c1.892,0,3.824,0,5.717-0.04c2.576-0.081,5.072-0.362,7.608-0.966c4.388-1.047,8.414-3.02,11.917-5.838
	C109.894,81.674,114,73.099,114,64C114,54.902,109.894,46.327,102.809,40.65z M89.563,72.132c-1.328,0.927-2.818,1.49-4.388,1.731
	c-1.57,0.241-3.18,0.201-4.75,0.201h-32.81c-1.61,0-3.181,0.04-4.75-0.201c-1.61-0.241-3.06-0.805-4.388-1.731
	C35.82,70.28,34.209,67.261,34.209,64s1.61-6.28,4.267-8.132c1.329-0.926,2.818-1.49,4.388-1.731c1.57-0.241,3.18-0.201,4.75-0.201
	h32.81c1.61,0,3.18-0.04,4.75,0.201c1.611,0.242,3.06,0.806,4.388,1.731c2.657,1.852,4.268,4.871,4.268,8.132
	C93.871,67.261,92.261,70.28,89.563,72.132z"/>
</svg>
