<?xml version="1.0" encoding="utf-8"?>
<!-- Generator: Adobe Illustrator 15.0.0, SVG Export Plug-In . SVG Version: 6.00 Build 0)  -->
<!DOCTYPE svg PUBLIC "-//W3C//DTD SVG 1.1//EN" "http://www.w3.org/Graphics/SVG/1.1/DTD/svg11.dtd">
<svg version="1.1" id="Calque_1" xmlns="http://www.w3.org/2000/svg" xmlns:xlink="http://www.w3.org/1999/xlink" x="0px" y="0px"
	 width="128px" height="128px" viewBox="84.418 104.443 128 128" enable-background="new 84.418 104.443 128 128"
	 xml:space="preserve">
<g>
	<g>
		<path fill="#597380" d="M181.75,186.121c0,4.22-5.92,7.93-14.9,10.1c-5.279,1.28-11.62,2.021-18.43,2.021
			c-4.12,0-8.061-0.271-11.71-0.771c-2.38-0.32-4.63-0.74-6.721-1.25c-8.979-2.17-14.899-5.88-14.899-10.1
			c0-6.69,14.92-12.12,33.33-12.12c4.12,0,8.06,0.27,11.71,0.77C172.76,176.491,181.75,180.921,181.75,186.121z"/>
		<path fill="#6B8A99" d="M160.127,174.771l-23.413,22.702v0.003c-2.383-0.325-4.633-0.747-6.722-1.253
			c-8.984-2.169-14.906-5.884-14.906-10.101c0-6.694,14.925-12.121,33.334-12.121C152.54,174.001,156.483,174.273,160.127,174.771z"
			/>
		<path fill="#BCCAD1" d="M181.75,186.121v20.199c0,6.7-14.92,12.12-33.33,12.12c-4.12,0-8.061-0.27-11.71-0.77
			c-12.63-1.72-21.62-6.15-21.62-11.351v-20.199c0,4.22,5.92,7.93,14.899,10.1c2.091,0.51,4.341,0.93,6.721,1.25
			c3.649,0.5,7.59,0.771,11.71,0.771c6.81,0,13.15-0.74,18.43-2.021C175.831,194.051,181.75,190.341,181.75,186.121z"/>
		<path fill="#C9D8E0" d="M136.714,197.476v20.199c-12.636-1.722-21.628-6.153-21.628-11.352v-20.201
			c0,4.217,5.922,7.932,14.906,10.101C132.082,196.729,134.332,197.151,136.714,197.476z"/>
	</g>
	<g>
		<path fill="#597380" d="M181.75,158.343c0,4.22-5.92,7.93-14.9,10.1c-5.279,1.28-11.62,2.021-18.43,2.021
			c-4.12,0-8.061-0.271-11.71-0.771c-2.38-0.32-4.63-0.74-6.721-1.25c-8.979-2.17-14.899-5.88-14.899-10.1
			c0-6.69,14.92-12.12,33.33-12.12c4.12,0,8.06,0.27,11.71,0.77C172.76,148.713,181.75,153.143,181.75,158.343z"/>
		<path fill="#6B8A99" d="M160.127,146.992l-23.413,22.702v0.003c-2.383-0.325-4.633-0.747-6.722-1.253
			c-8.984-2.169-14.906-5.884-14.906-10.101c0-6.694,14.925-12.121,33.334-12.121C152.54,146.223,156.483,146.494,160.127,146.992z"
			/>
		<path fill="#BCCAD1" d="M181.75,158.343v20.199c0,6.7-14.92,12.12-33.33,12.12c-4.12,0-8.061-0.27-11.71-0.77
			c-12.63-1.72-21.62-6.15-21.62-11.351v-20.199c0,4.22,5.92,7.93,14.899,10.1c2.091,0.51,4.341,0.93,6.721,1.25
			c3.649,0.5,7.59,0.771,11.71,0.771c6.81,0,13.15-0.74,18.43-2.021C175.831,166.273,181.75,162.563,181.75,158.343z"/>
		<path fill="#C9D8E0" d="M136.714,169.698v20.199c-12.636-1.722-21.628-6.153-21.628-11.352v-20.201
			c0,4.217,5.922,7.932,14.906,10.101C132.082,168.95,134.332,169.372,136.714,169.698z"/>
	</g>
	<g>
		<path fill="#597380" d="M181.75,130.563c0,4.22-5.92,7.93-14.9,10.1c-5.279,1.28-11.62,2.02-18.43,2.02
			c-4.12,0-8.061-0.27-11.71-0.77c-2.38-0.32-4.63-0.74-6.721-1.25c-8.979-2.17-14.899-5.88-14.899-10.1
			c0-6.69,14.92-12.12,33.33-12.12c4.12,0,8.06,0.27,11.71,0.77C172.76,120.933,181.75,125.363,181.75,130.563z"/>
		<path fill="#6B8A99" d="M160.127,119.212l-23.413,22.703v0.002c-2.383-0.325-4.633-0.747-6.722-1.252
			c-8.984-2.169-14.906-5.884-14.906-10.101c0-6.694,14.925-12.121,33.334-12.121C152.54,118.443,156.483,118.715,160.127,119.212z"
			/>
		<path fill="#BCCAD1" d="M181.75,130.563v20.2c0,6.7-14.92,12.12-33.33,12.12c-4.12,0-8.061-0.27-11.71-0.77
			c-12.63-1.72-21.62-6.15-21.62-11.35v-20.2c0,4.22,5.92,7.93,14.899,10.1c2.091,0.51,4.341,0.93,6.721,1.25
			c3.649,0.5,7.59,0.77,11.71,0.77c6.81,0,13.15-0.74,18.43-2.02C175.831,138.492,181.75,134.782,181.75,130.563z"/>
		<path fill="#C9D8E0" d="M136.714,141.917v20.199c-12.636-1.722-21.628-6.153-21.628-11.351v-20.202
			c0,4.217,5.922,7.932,14.906,10.101C132.082,141.17,134.332,141.592,136.714,141.917z"/>
	</g>
</g>
</svg>
