<?xml version="1.0" encoding="utf-8"?>
<!-- Generator: Adobe Illustrator 15.0.0, SVG Export Plug-In . SVG Version: 6.00 Build 0)  -->
<!DOCTYPE svg PUBLIC "-//W3C//DTD SVG 1.1//EN" "http://www.w3.org/Graphics/SVG/1.1/DTD/svg11.dtd">
<svg version="1.1" id="Layer_1" xmlns="http://www.w3.org/2000/svg" xmlns:xlink="http://www.w3.org/1999/xlink" x="0px" y="0px"
	 width="128px" height="128px" viewBox="0 0 128 128" enable-background="new 0 0 128 128" xml:space="preserve">
<linearGradient id="SVGID_1_" gradientUnits="userSpaceOnUse" x1="2.8882" y1="125.8008" x2="2.8882" y2="125.0195" gradientTransform="matrix(127.8627 0 0 -128 -305.2668 16116.5)">
	<stop  offset="0" style="stop-color:#111D2E"/>
	<stop  offset="0.2125" style="stop-color:#051839"/>
	<stop  offset="0.4069" style="stop-color:#0A1B48"/>
	<stop  offset="0.5811" style="stop-color:#132E62"/>
	<stop  offset="0.7376" style="stop-color:#144B7E"/>
	<stop  offset="0.8728" style="stop-color:#136497"/>
	<stop  offset="1" style="stop-color:#1387B8"/>
</linearGradient>
<path fill="url(#SVGID_1_)" d="M16.067,78.382C22.244,98.987,41.353,114,63.968,114c27.614,0,50-22.386,50-50s-22.386-50-50-50
	c-26.498,0-48.18,20.613-49.893,46.678C17.312,66.111,18.574,69.472,16.067,78.382L16.067,78.382z"/>
<path fill="#FFFFFF" d="M61.393,51.477c0,0.084,0,0.168,0.004,0.247L49.162,69.498c-1.982-0.09-3.971,0.258-5.857,1.034
	c-0.831,0.339-1.61,0.755-2.341,1.236l-26.867-11.06c0,0-0.622,10.227,1.969,17.85l18.993,7.837c0.954,4.262,3.877,7.999,8.19,9.798
	c7.057,2.948,15.194-0.412,18.129-7.473c0.764-1.845,1.12-3.781,1.069-5.712l17.506-12.511c0.142,0.004,0.288,0.008,0.429,0.008
	c10.478,0,18.992-8.54,18.992-19.029c0-10.489-8.515-19.022-18.992-19.022C69.912,32.455,61.393,40.988,61.393,51.477z
	 M58.457,87.494c-2.272,5.455-8.541,8.043-13.989,5.772c-2.514-1.048-4.412-2.967-5.507-5.254l6.183,2.562
	c4.019,1.675,8.629-0.23,10.299-4.248c1.676-4.021-0.225-8.639-4.241-10.313l-6.391-2.649c2.466-0.936,5.27-0.969,7.889,0.12
	c2.64,1.1,4.689,3.168,5.775,5.812C59.56,81.939,59.556,84.858,58.457,87.494 M80.384,64.154c-6.974,0-12.651-5.687-12.651-12.677
	c0-6.985,5.678-12.673,12.651-12.673c6.979,0,12.657,5.688,12.657,12.673C93.041,58.468,87.362,64.154,80.384,64.154 M70.903,51.458
	c0-5.259,4.258-9.524,9.503-9.524c5.248,0,9.506,4.265,9.506,9.524s-4.258,9.521-9.506,9.521
	C75.161,60.979,70.903,56.717,70.903,51.458z"/>
</svg>
