<?xml version="1.0" encoding="utf-8"?>
<!-- Generator: Adobe Illustrator 15.0.0, SVG Export Plug-In . SVG Version: 6.00 Build 0)  -->
<!DOCTYPE svg PUBLIC "-//W3C//DTD SVG 1.1//EN" "http://www.w3.org/Graphics/SVG/1.1/DTD/svg11.dtd">
<svg version="1.1"
	 id="svg8" xmlns:svg="http://www.w3.org/2000/svg" xmlns:dc="http://purl.org/dc/elements/1.1/" xmlns:cc="http://creativecommons.org/ns#" xmlns:rdf="http://www.w3.org/1999/02/22-rdf-syntax-ns#"
	 xmlns="http://www.w3.org/2000/svg" xmlns:xlink="http://www.w3.org/1999/xlink" x="0px" y="0px" width="128px" height="128px"
	 viewBox="-6.72 -2.583 128 128" enable-background="new -6.72 -2.583 128 128" xml:space="preserve">
<g id="layer1" transform="translate(-77.942529,-177.00005)">
	<g id="g4550">
		<path id="path4508" fill="#E55B2D" d="M141.884,203.801v15.385l26.646,15.385v-15.385L141.884,203.801z M88.59,219.186v15.385
			l13.323,7.691v-15.384L88.59,219.186z M128.56,226.879l-13.323,7.692v46.153l13.323,7.692v-30.77l13.324,7.693v-15.386
			l-13.324-7.692V226.879z"/>
		<path id="path4491" fill="#ED8E24" d="M141.884,203.801l-39.97,23.078v15.384l26.646-15.384v15.384l13.324-7.691V203.801z
			 M181.855,211.494l-13.324,7.692v15.385l13.324-7.692V211.494z M155.207,242.263l-13.323,7.692v15.386l13.323-7.693V242.263z
			 M141.884,265.341l-13.324-7.693v30.77l13.324-7.692V265.341z"/>
		<path id="path4506" fill="#F8BF3C" d="M141.884,188.417L88.59,219.186l13.323,7.693l39.97-23.078l26.646,15.385l13.324-7.692
			L141.884,188.417z M141.884,234.571l-13.324,7.691l13.324,7.692l13.323-7.692L141.884,234.571z"/>
	</g>
</g>
</svg>
