<?xml version="1.0" encoding="utf-8"?>
<!-- Generator: Adobe Illustrator 15.0.0, SVG Export Plug-In . SVG Version: 6.00 Build 0)  -->
<!DOCTYPE svg PUBLIC "-//W3C//DTD SVG 1.1//EN" "http://www.w3.org/Graphics/SVG/1.1/DTD/svg11.dtd">
<svg version="1.1"
	 id="svg4" xmlns:svg="http://www.w3.org/2000/svg" xmlns:dc="http://purl.org/dc/elements/1.1/" xmlns:cc="http://creativecommons.org/ns#" xmlns:rdf="http://www.w3.org/1999/02/22-rdf-syntax-ns#"
	 xmlns="http://www.w3.org/2000/svg" xmlns:xlink="http://www.w3.org/1999/xlink" x="0px" y="0px" width="128px" height="128px"
	 viewBox="-14.225 -14 128 128" enable-background="new -14.225 -14 128 128" xml:space="preserve">
<path fill="#FFFFFF" d="M82.775,80.021L64.9,49.954l17.875-30.067l8.617,30.067L82.775,80.021z M42.992,77.087L20.533,54.812h35.75
	l17.875,30.067L42.992,77.087z M42.992,22.729l31.075-7.792L56.192,45.004h-35.75L42.992,22.729z"/>
<path fill="#110B09" d="M88.642,0.179L48.033,10.721l-6.05,10.358l-12.191-0.092L0,49.954l29.792,28.967l12.191-0.092l6.05,10.357
	l40.609,10.635l10.908-39.51l-6.142-10.266l6.142-10.267L88.642,0.179z M82.775,80.021L64.9,49.954l17.875-30.067l8.617,30.067
	L82.775,80.021z M42.992,77.087L20.533,54.812h35.75l17.875,30.067L42.992,77.087z M42.992,22.729l31.075-7.792L56.192,45.004
	h-35.75L42.992,22.729z"/>
</svg>
